<?xml version="1.0" encoding="UTF-8"?>
<svg version="1.1" xmlns="http://www.w3.org/2000/svg" width="400" height="400" viewBox="50 100 300 200">
<path d="M0 0 C1.09048645 -0.00295074 2.1809729 -0.00590149 3.30450439 -0.00894165 C27.86082098 -0.02391093 51.96845724 2.22604211 76.3125 5.24609375 C103.37035507 8.53923177 130.31816962 7.81303853 157.453125 5.84765625 C159.2175293 5.72028076 159.2175293 5.72028076 161.01757812 5.59033203 C162.98240988 5.44407493 164.94716608 5.29638878 166.91088867 5.13592529 C169.12227644 4.95525282 171.33437592 4.78752686 173.546875 4.62109375 C174.23630188 4.56075455 174.92572876 4.50041534 175.63604736 4.43824768 C177.33679914 4.31563055 179.04485022 4.30503047 180.75 4.3125 C183.58249228 7.14499228 183.00155652 8.98522494 183.00396729 12.95544434 C183.00708727 13.6458624 183.01020725 14.33628047 183.01342177 15.0476203 C183.02143001 17.37232726 183.01506728 19.69677524 183.00878906 22.02148438 C183.01149768 23.68353936 183.01505787 25.34559315 183.01940918 27.00764465 C183.0285509 31.53027331 183.02498161 36.05281105 183.01865101 40.57544136 C183.01360022 45.30041887 183.01827989 50.02538841 183.02142334 54.75036621 C183.02506568 62.68629357 183.02025687 70.62218375 183.01074219 78.55810547 C182.99985712 87.74329975 183.00338251 96.92840526 183.014395 106.11359739 C183.02346026 113.98877077 183.02475689 121.86391736 183.01951766 129.73909426 C183.01639376 134.4474308 183.01600009 139.15572556 183.02259064 143.86405945 C183.02835243 148.28975789 183.02438871 152.71534147 183.01280212 157.14102745 C183.01014927 158.76887 183.01093123 160.39672215 183.01532745 162.02456093 C183.02075984 164.23969132 183.01397729 166.45444926 183.00396729 168.66955566 C183.00283621 170.53229 183.00283621 170.53229 183.00168228 172.43265533 C182.75 175.3125 182.75 175.3125 180.75 177.3125 C178.35526897 177.76935018 176.04199371 178.10926933 173.625 178.375 C172.34367188 178.53097656 171.06234375 178.68695313 169.7421875 178.84765625 C155.72416876 180.24706342 141.70309376 180.58597445 127.625 180.625 C126.15447174 180.62992462 126.15447174 180.62992462 124.65423584 180.63494873 C99.16727018 180.66212635 73.75399599 178.57792149 48.4921875 175.2421875 C32.97101217 173.26797293 17.44009126 173.1087684 1.8125 173.125 C0.32840637 173.12540787 0.32840637 173.12540787 -1.18566895 173.12582397 C-22.41866315 173.15258897 -43.19893442 174.56244175 -64.24902344 177.43481445 C-65.7132373 177.62756958 -65.7132373 177.62756958 -67.20703125 177.82421875 C-68.49057495 178.00150513 -68.49057495 178.00150513 -69.80004883 178.18237305 C-72.25 178.3125 -72.25 178.3125 -77.25 177.3125 C-77.25 121.2125 -77.25 65.1125 -77.25 7.3125 C-72.42265149 5.70338383 -68.68663521 4.85167106 -63.71875 4.27734375 C-63.00577759 4.19376114 -62.29280518 4.11017853 -61.55822754 4.02406311 C-60.05251434 3.84886677 -58.54643924 3.67675613 -57.04003906 3.50756836 C-54.78360965 3.25378019 -52.52851981 2.99007296 -50.2734375 2.72460938 C-33.50276822 0.77444835 -16.87931542 0.04041171 0 0 Z " fill="#FFFFFF" transform="translate(147.25,108.6875)"/>
<path d="M0 0 C9 0 9 0 20 2 C20 14.54 20 27.08 20 40 C32.87 40.66 45.74 41.32 59 42 C59 49.92 59 57.84 59 66 C45.66409809 66.38102577 33.22505688 64.88929384 20 63 C20 75.54 20 88.08 20 101 C3 99 3 99 0 98 C0 85.46 0 72.92 0 60 C-4.95 60 -9.9 60 -15 60 C-18.81913731 59.86210723 -22.62332166 59.70746979 -26.4375 59.5 C-29.593125 59.335 -32.74875 59.17 -36 59 C-36 51.74 -36 44.48 -36 37 C-24.12 37 -12.24 37 0 37 C0 24.79 0 12.58 0 0 Z " fill="#000000" transform="translate(189,150)"/>
</svg>
